<?xml version="1.0" standalone="no"?>
<!DOCTYPE svg PUBLIC "-//W3C//DTD SVG 20010904//EN"
 "http://www.w3.org/TR/2001/REC-SVG-20010904/DTD/svg10.dtd">
<svg version="1.0" xmlns="http://www.w3.org/2000/svg"
 width="2110.000000pt" height="2046.000000pt" viewBox="0 0 2110.000000 2046.000000"
 preserveAspectRatio="xMidYMid meet">

<g transform="translate(0.000000,2046.000000) scale(0.100000,-0.100000)"
fill="#000000" stroke="none">
<path d="M10359 19214 c-97 -17 -222 -57 -313 -98 -100 -46 -6385 -3051 -6471
-3093 -317 -159 -563 -455 -649 -784 -67 -252 -1617 -7027 -1627 -7109 -34
-279 54 -619 218 -842 24 -32 738 -922 1585 -1976 848 -1054 1857 -2308 2241
-2787 385 -478 722 -894 751 -923 142 -148 341 -270 541 -331 180 -55 -73 -52
3939 -51 4061 1 3760 -4 3964 61 184 59 352 160 486 293 47 46 544 657 1166
1431 597 743 1602 1994 2234 2780 633 787 1174 1464 1204 1505 165 229 249
535 223 814 -8 79 -216 998 -817 3608 -443 1927 -819 3543 -835 3592 -97 293
-321 560 -584 698 -214 111 -6584 3145 -6655 3168 -47 16 -125 36 -175 44
-110 19 -321 19 -426 0z m375 -2372 c121 -57 205 -165 225 -290 13 -81 -4
-340 -33 -507 -39 -225 -56 -410 -56 -615 0 -212 5 -230 84 -319 46 -52 46
-52 46 -126 0 -69 2 -75 23 -79 12 -2 97 -13 189 -25 1054 -132 2080 -629
2850 -1380 l147 -143 71 51 70 51 82 1 c54 0 98 6 126 17 99 40 379 294 671
611 120 129 257 247 328 282 22 11 69 25 103 31 205 39 407 -103 450 -316 20
-99 -7 -218 -71 -304 -58 -79 -230 -201 -469 -332 -206 -113 -460 -288 -586
-402 -57 -52 -88 -114 -99 -193 -6 -45 -13 -56 -71 -110 l-65 -60 52 -80 c618
-957 897 -2150 765 -3280 -7 -60 -9 -112 -5 -115 4 -3 39 -14 76 -24 63 -17
71 -23 102 -68 38 -54 114 -114 163 -129 160 -46 485 -94 745 -109 196 -11
274 -21 398 -50 106 -25 168 -57 230 -118 188 -189 131 -511 -112 -625 -147
-68 -298 -43 -698 116 -321 127 -630 217 -748 217 -54 0 -120 -22 -162 -54
-30 -23 -32 -23 -100 -10 -39 7 -75 13 -82 14 -6 0 -24 -37 -39 -82 -306 -933
-937 -1806 -1739 -2408 -136 -102 -431 -300 -448 -300 -12 0 -1 -43 27 -106
l24 -51 -20 -59 c-32 -94 -23 -147 49 -296 77 -159 167 -316 251 -438 249
-360 322 -490 340 -605 20 -125 -26 -264 -114 -345 -25 -23 -75 -56 -112 -73
-60 -28 -77 -32 -157 -32 -117 1 -183 26 -265 102 -89 82 -159 235 -246 533
-75 255 -149 451 -243 638 -58 115 -105 163 -188 189 -51 16 -55 20 -93 89
l-39 72 -173 -59 c-386 -131 -804 -216 -1222 -249 -166 -13 -586 -13 -752 0
-419 33 -835 118 -1226 250 -97 33 -181 60 -186 60 -6 0 -28 -33 -50 -73 -38
-69 -43 -74 -94 -90 -89 -28 -115 -58 -205 -234 -96 -187 -156 -342 -217 -559
-83 -296 -159 -474 -238 -560 -48 -52 -140 -100 -222 -115 -252 -46 -491 192
-447 445 15 86 111 274 220 431 164 236 244 368 343 562 110 216 115 238 79
352 l-19 61 34 82 c19 44 33 82 32 83 -2 2 -34 22 -73 45 -585 354 -1156 902
-1542 1480 -227 340 -447 783 -579 1165 -15 44 -29 82 -30 84 -2 2 -39 -2 -83
-9 l-79 -12 -65 32 c-99 49 -153 50 -328 7 -197 -48 -339 -95 -554 -182 -270
-109 -431 -155 -539 -155 -262 0 -448 261 -365 513 70 214 240 290 712 317
265 16 580 62 749 110 48 14 127 77 168 133 29 41 39 47 112 68 79 22 80 23
74 52 -44 217 -56 872 -23 1177 87 794 340 1527 747 2171 l67 106 -62 56 c-55
50 -63 61 -67 101 -3 24 -19 73 -35 108 -26 55 -43 74 -124 139 -184 147 -343
253 -543 361 -211 115 -389 243 -439 316 -59 85 -72 129 -72 247 0 105 2 114
33 177 37 77 90 128 172 167 48 23 68 26 155 26 80 0 112 -5 161 -23 88 -33
218 -136 336 -265 283 -309 581 -583 686 -629 34 -15 62 -19 122 -17 l79 3 67
-46 66 -47 97 97 c804 806 1845 1308 2980 1437 82 9 138 20 143 27 4 7 8 41 8
76 0 58 3 65 43 115 23 29 53 77 66 107 23 54 24 60 18 265 -6 229 -15 315
-52 535 -53 321 -58 501 -16 612 24 63 99 153 157 189 109 67 252 75 368 21z"/>
<path d="M9885 13844 c-753 -129 -1466 -478 -2021 -989 -78 -72 -93 -90 -82
-101 35 -33 1643 -1166 1688 -1189 209 -106 442 14 490 251 9 44 120 1908 120
2011 0 52 5 52 -195 17z"/>
<path d="M11066 13808 c3 -35 29 -497 59 -1028 30 -531 59 -979 64 -995 28
-97 99 -181 190 -223 45 -22 71 -26 136 -27 71 0 88 4 148 33 50 25 1659 1152
1697 1189 8 8 -163 166 -279 259 -533 427 -1161 711 -1831 829 -203 35 -190
38 -184 -37z"/>
<path d="M7113 11923 c-145 -246 -277 -546 -361 -818 -142 -460 -202 -958
-172 -1420 6 -104 13 -191 14 -192 6 -6 1918 551 1976 575 134 56 212 173 212
319 0 86 -26 151 -93 230 -44 51 -1516 1373 -1530 1373 -3 0 -25 -30 -46 -67z"/>
<path d="M13275 11369 c-379 -340 -724 -650 -765 -688 -51 -46 -87 -90 -110
-132 -33 -60 -35 -70 -35 -154 0 -71 5 -100 22 -137 33 -72 98 -136 178 -174
66 -32 1982 -591 1991 -581 2 2 9 88 14 190 32 584 -82 1220 -320 1777 -90
211 -254 520 -275 519 -5 0 -320 -279 -700 -620z"/>
<path d="M10072 10299 l-193 -240 68 -297 68 -297 215 -107 c118 -58 244 -119
280 -135 l65 -30 270 129 c149 72 273 133 277 136 4 4 38 140 76 303 l68 296
-193 242 -193 241 -308 0 -307 0 -193 -241z"/>
<path d="M8815 8873 c-56 -6 -1989 -334 -1994 -339 -8 -7 71 -197 148 -359
266 -554 631 -1012 1113 -1400 132 -106 325 -242 332 -234 11 11 760 1831 771
1874 23 92 26 126 15 183 -22 107 -87 194 -177 241 -34 17 -146 44 -162 39 -3
-1 -24 -3 -46 -5z"/>
<path d="M12140 8854 c-68 -31 -134 -93 -168 -159 -35 -68 -42 -186 -15 -265
24 -68 773 -1882 782 -1893 4 -4 47 20 95 53 466 318 842 712 1151 1205 137
218 373 723 348 745 -4 4 -453 82 -998 174 -687 116 -1013 166 -1065 166 -59
0 -87 -6 -130 -26z"/>
<path d="M10503 8050 c-79 -17 -157 -68 -203 -135 -55 -80 -1000 -1799 -993
-1806 29 -25 398 -119 603 -153 240 -40 307 -46 570 -52 356 -9 638 17 965 90
185 41 405 105 405 118 0 5 -219 406 -487 891 -456 825 -492 886 -553 948 -48
48 -78 70 -115 83 -63 21 -138 27 -192 16z"/>
</g>
</svg>
