<?xml version="1.0" standalone="no"?>
<!DOCTYPE svg PUBLIC "-//W3C//DTD SVG 20010904//EN"
 "http://www.w3.org/TR/2001/REC-SVG-20010904/DTD/svg10.dtd">
<svg version="1.0" xmlns="http://www.w3.org/2000/svg"
 width="512.000000pt" height="512.000000pt" viewBox="0 0 512.000000 512.000000"
 preserveAspectRatio="xMidYMid meet">

<g transform="translate(0.000000,512.000000) scale(0.100000,-0.100000)"
fill="#000000" stroke="none">
<path d="M2475 5109 c-92 -13 -191 -46 -295 -97 -172 -84 -282 -225 -325 -417
-25 -109 -29 -366 -11 -635 25 -371 18 -545 -25 -619 -12 -20 -83 -119 -158
-221 -255 -343 -272 -374 -406 -745 -48 -132 -109 -287 -136 -345 -63 -137
-73 -181 -67 -290 l5 -89 -34 -33 c-19 -18 -50 -61 -69 -95 -60 -106 -118
-143 -298 -189 -150 -38 -198 -68 -231 -146 -20 -49 -19 -96 5 -196 26 -109
25 -162 -5 -263 -58 -194 -58 -197 -40 -245 40 -106 155 -158 453 -203 174
-27 216 -38 472 -126 332 -114 412 -132 523 -114 96 16 192 79 235 154 7 14
41 23 151 41 289 47 518 52 776 18 164 -22 180 -28 214 -77 107 -154 253 -208
434 -161 89 23 143 54 227 129 97 87 223 170 490 318 237 132 260 146 308 191
75 69 96 170 54 253 -25 48 -62 78 -148 121 -129 65 -162 115 -174 262 -8 104
-27 160 -79 233 l-30 42 15 70 c41 192 34 426 -16 577 -32 95 -110 257 -191
394 -63 107 -286 443 -429 644 -194 276 -193 271 -230 860 -29 461 -172 757
-441 913 -136 80 -339 113 -524 86z m385 -763 c59 -39 100 -128 100 -217 0
-60 -13 -123 -29 -141 -3 -4 -4 17 -3 47 5 67 -30 151 -77 184 -35 25 -88 37
-125 27 -62 -15 -121 -97 -133 -182 -9 -68 -26 -29 -26 61 0 196 155 313 293
221z m-653 -40 c45 -38 74 -106 80 -191 7 -87 -7 -100 -26 -25 -16 62 -59 123
-100 140 -40 16 -97 7 -127 -21 -29 -27 -31 -11 -4 40 40 79 120 105 177 57z
m379 -497 c178 -66 217 -83 234 -104 13 -16 13 -19 0 -27 -282 -168 -429 -243
-458 -234 -61 20 -253 172 -251 200 1 17 190 167 250 199 59 31 44 33 225 -34z
m416 -364 c21 -38 94 -196 162 -350 184 -416 308 -752 343 -925 24 -121 16
-439 -13 -532 -4 -14 -17 -18 -61 -18 -66 0 -113 -20 -136 -60 -24 -39 -36
-147 -37 -320 -2 -211 -6 -230 -71 -296 -162 -166 -346 -267 -535 -294 -132
-18 -334 -29 -427 -23 l-89 6 -80 90 -81 90 36 31 c56 49 70 80 71 151 1 56
-3 68 -36 116 -42 61 -102 116 -268 245 -172 133 -262 226 -291 299 -20 52
-23 77 -23 195 0 182 22 268 119 465 40 83 105 239 144 347 78 220 95 256 156
343 74 104 133 244 150 353 4 23 8 42 10 42 2 0 34 -23 70 -50 132 -100 210
-124 306 -97 30 9 144 66 254 128 220 122 253 138 274 136 8 -1 32 -33 53 -72z
m-1739 -2010 c62 -47 114 -118 237 -320 144 -236 198 -318 269 -405 144 -176
158 -281 52 -393 -40 -44 -74 -58 -123 -51 -76 10 -219 55 -383 120 -188 73
-223 83 -458 124 -193 34 -225 42 -233 64 -3 8 8 63 24 123 43 152 45 178 28
279 -9 49 -16 97 -16 107 0 23 43 41 176 73 58 13 123 33 143 44 49 25 94 76
132 153 43 85 67 117 88 117 10 0 39 -16 64 -35z m2266 -191 c16 -58 64 -120
113 -145 69 -36 177 -38 280 -6 102 32 165 72 215 138 l38 50 12 -87 c22 -155
71 -231 191 -296 41 -23 86 -51 100 -63 l26 -22 -40 -25 c-21 -14 -122 -69
-224 -123 -234 -124 -262 -143 -389 -254 -105 -92 -220 -161 -269 -161 -44 0
-89 37 -119 97 -36 75 -35 142 5 343 47 236 56 350 43 516 -12 156 -12 192 -1
124 4 -25 13 -63 19 -86z"/>
</g>
</svg>
