<?xml version="1.0" standalone="no"?>
<!DOCTYPE svg PUBLIC "-//W3C//DTD SVG 20010904//EN"
 "http://www.w3.org/TR/2001/REC-SVG-20010904/DTD/svg10.dtd">
<svg version="1.0" xmlns="http://www.w3.org/2000/svg"
 width="256.000000pt" height="256.000000pt" viewBox="0 0 256.000000 256.000000"
 preserveAspectRatio="xMidYMid meet">

<g transform="translate(0.000000,256.000000) scale(0.100000,-0.100000)"
fill="#000000" stroke="none">
<path d="M1126 2444 c-66 -21 -146 -101 -170 -169 -27 -81 -30 -160 -11 -382
20 -242 24 -227 -75 -348 -92 -113 -127 -173 -165 -284 -38 -108 -79 -198
-121 -260 -36 -55 -46 -93 -35 -125 10 -26 12 -26 40 -11 38 19 74 19 111 0
l30 -16 0 49 c0 75 36 197 85 294 25 48 54 126 66 174 16 64 31 98 59 133 49
62 56 76 70 144 11 55 11 58 -14 88 -36 43 -34 80 7 116 l33 29 -23 49 c-37
80 -25 167 26 195 48 25 111 -36 111 -106 0 -43 1 -44 33 -44 17 0 42 -3 53
-6 20 -5 22 -1 26 55 3 50 9 66 33 91 59 62 155 25 176 -69 10 -43 9 -51 -13
-124 -10 -34 -9 -39 10 -53 24 -17 29 -58 12 -96 -9 -19 -3 -41 35 -128 25
-58 54 -134 64 -170 10 -36 37 -94 60 -129 23 -36 50 -92 60 -126 24 -76 44
-238 40 -325 -6 -141 -2 -165 33 -199 17 -17 47 -34 65 -37 76 -14 175 56 189
133 3 21 13 58 21 83 30 90 28 157 -6 268 -41 131 -84 213 -170 321 -79 98
-120 168 -182 304 l-42 92 -7 185 c-6 173 -8 188 -32 235 -35 67 -90 118 -163
152 -52 23 -75 28 -165 30 -74 2 -120 -2 -154 -13z m205 -14 c30 -8 38 -16 41
-39 l4 -29 -60 5 c-43 3 -57 2 -47 -5 12 -9 13 -17 2 -52 -31 -105 -168 -140
-234 -58 l-29 37 18 37 c23 46 56 71 125 95 61 21 126 24 180 9z m-680 -1373
c-10 -9 -11 -8 -5 6 3 10 9 15 12 12 3 -3 0 -11 -7 -18z m1207 -244 c-4 -20
-35 -30 -50 -15 -15 15 0 32 28 32 19 0 25 -5 22 -17z"/>
<path d="M1038 2039 c-25 -14 -24 -89 1 -120 l18 -23 31 25 c37 29 41 65 11
103 -22 28 -34 31 -61 15z m24 -31 c-15 -15 -26 -4 -18 18 5 13 9 15 18 6 9
-9 9 -15 0 -24z"/>
<path d="M1337 2038 c-21 -17 -39 -66 -32 -88 5 -17 65 -50 90 -50 40 0 47 89
10 125 -27 28 -43 31 -68 13z m43 -23 c0 -8 -7 -15 -15 -15 -8 0 -15 7 -15 15
0 8 7 15 15 15 8 0 15 -7 15 -15z"/>
<path d="M817 744 c11 -16 42 -72 68 -124 26 -52 56 -107 67 -122 53 -75 119
22 71 104 -10 16 -50 50 -90 74 -39 25 -77 52 -84 60 -7 8 -21 20 -32 26 -20
10 -20 10 0 -18z"/>
<path d="M1538 475 c-67 -63 -143 -101 -241 -122 -71 -14 -176 -13 -225 2
l-24 8 17 -33 c16 -30 15 -72 -1 -115 -4 -10 7 -10 58 2 71 17 279 22 376 10
l62 -8 0 56 c0 30 9 96 20 147 12 50 19 94 18 99 -2 4 -29 -17 -60 -46z"/>
</g>
</svg>
