<?xml version="1.0" standalone="no"?>
<!DOCTYPE svg PUBLIC "-//W3C//DTD SVG 20010904//EN"
 "http://www.w3.org/TR/2001/REC-SVG-20010904/DTD/svg10.dtd">
<svg version="1.0" xmlns="http://www.w3.org/2000/svg"
 width="48.000000pt" height="48.000000pt" viewBox="0 0 48.000000 48.000000"
 preserveAspectRatio="xMidYMid meet">

<g transform="translate(0.000000,48.000000) scale(0.100000,-0.100000)"
fill="#000000" stroke="none">
<path d="M217 402 c-18 -20 -23 -47 -7 -37 6 3 13 -1 16 -10 6 -14 8 -14 19 1
15 22 35 10 35 -21 0 -13 9 -44 20 -70 11 -26 21 -56 21 -68 1 -17 3 -15 9 8
l8 30 1 -27 c0 -15 -3 -30 -9 -33 -13 -8 -13 -25 1 -25 6 0 17 7 25 15 18 18
13 40 -27 111 -16 28 -29 63 -29 78 0 28 -31 66 -53 66 -8 0 -21 -8 -30 -18z"/>
<path d="M205 339 c-4 -6 -5 -12 -2 -15 2 -3 7 2 10 11 7 17 1 20 -8 4z"/>
<path d="M255 340 c3 -5 8 -10 11 -10 2 0 4 5 4 10 0 6 -5 10 -11 10 -5 0 -7
-4 -4 -10z"/>
<path d="M176 258 l-17 -33 20 24 c18 20 27 41 18 41 -1 0 -11 -15 -21 -32z"/>
<path d="M146 204 c-6 -15 41 -84 57 -84 14 0 7 12 -23 40 -19 18 -28 34 -24
44 3 9 4 16 1 16 -3 0 -8 -7 -11 -16z"/>
<path d="M207 93 c7 -17 83 -17 83 0 0 8 -15 12 -44 12 -30 0 -42 -4 -39 -12z"/>
</g>
</svg>
